<svg xmlns="http://www.w3.org/2000/svg" xmlns:xlink="http://www.w3.org/1999/xlink" id="Layer_1" x="0" y="0" version="1.1" viewBox="0 0 374.8 337.1" xml:space="preserve" style="enable-background:new 0 0 374.8 337.1"><style type="text/css">.st0{fill:#9ea2cf}</style><g><path d="M187.4,332.9C97,332.9,23.5,259.4,23.5,169C23.5,78.6,97,5.1,187.4,5.1c90.4,0,163.9,73.5,163.9,163.9 C351.3,259.4,277.8,332.9,187.4,332.9z M187.4,35.2c-73.8,0-133.8,60-133.8,133.8s60,133.8,133.8,133.8s133.8-60,133.8-133.8 S261.2,35.2,187.4,35.2z" class="st0"/></g><g><g><path d="M283.3,183.8H91.5c-6.7,0-12-5.4-12-12v-5.6c0-6.7,5.4-12,12-12h191.7c6.7,0,12,5.4,12,12v5.6 C295.3,178.4,289.9,183.8,283.3,183.8z" class="st0"/></g></g></svg>