<svg xmlns="http://www.w3.org/2000/svg" xmlns:xlink="http://www.w3.org/1999/xlink" id="Layer_1" x="0" y="0" version="1.1" viewBox="0 0 374.8 337.1" xml:space="preserve" style="enable-background:new 0 0 374.8 337.1"><style type="text/css">.st0{fill:#9ea2cf}</style><g><g><path d="M187.4,332.4c-90.4,0-163.9-73.5-163.9-163.9C23.5,78.2,97,4.7,187.4,4.7c90.4,0,163.9,73.5,163.9,163.9 C351.3,258.9,277.8,332.4,187.4,332.4z M187.4,34.8c-73.8,0-133.8,60-133.8,133.8s60,133.8,133.8,133.8s133.8-60,133.8-133.8 S261.2,34.8,187.4,34.8z" class="st0"/></g><g><g><path d="M283.3,183.4H91.5c-6.7,0-12-5.4-12-12v-5.6c0-6.7,5.4-12,12-12h191.7c6.7,0,12,5.4,12,12v5.6 C295.3,178,289.9,183.4,283.3,183.4z" class="st0"/></g><g><path d="M172.6,72.7v191.7c0,6.7,5.4,12,12,12h5.6c6.7,0,12-5.4,12-12V72.7c0-6.7-5.4-12-12-12l-5.6,0 C178,60.7,172.6,66,172.6,72.7z" class="st0"/></g></g></g></svg>