<svg xmlns="http://www.w3.org/2000/svg" xmlns:xlink="http://www.w3.org/1999/xlink" width="312" height="312" version="1.1" viewBox="0 0 312 312"><title>valence</title><desc>Created with Sketch.</desc><g id="Page-1" fill="none" fill-rule="evenodd" stroke="none" stroke-width="1"><g id="valence" fill="#D8D8D8" stroke="#979797" transform="translate(1.000000, 1.000000)"><g id="Page-1"><g id="Oval-1"><path id="Shape" d="M167.539877,0.499911328 C163.403587,0.168763317 159.221502,0 155,0 C69.395864,0 0,69.395864 0,155 C0,240.604136 69.395864,310 155,310 C240.604136,310 310,240.604136 310,155 C310,73.6173658 247.27978,6.88382362 167.539877,0.499911328 Z M155.5,296 C238.618855,296 306,232.87215 306,155 C306,77.1278503 238.618855,14 155.5,14 C72.3811452,14 5,77.1278503 5,155 C5,232.87215 72.3811452,296 155.5,296 Z"/></g></g></g></g></svg>