<svg xmlns="http://www.w3.org/2000/svg" xmlns:svg="http://www.w3.org/2000/svg" id="svg2" width="69.482" height="75.962" enable-background="new 58.919 358.337 451.356 75.989" version="1.1" viewBox="58.919 358.337 69.482 75.962"><metadata id="metadata12"/><title id="title4">protonvpn-white-transparent</title><path id="path6" d="m 128.40086,366.81701 c 0,-4.68 -3.8,-8.48 -8.5,-8.48 -4.7,0 -8.5,3.8 -8.5,8.48 l 0,0.27 -36.970004,11.91 c -2.64,-3.88 -7.92,-4.9 -11.8,-2.25 -3.87,2.63 -4.88,7.9 -2.24,11.8 1.6,2.37 4.3,3.76 7.2,3.7 0.86,0 1.74,-0.16 2.57,-0.45 l 24.3,30.68 c -1.84,4.32 0.17,9.3 4.48,11.14 4.300004,1.84 9.300004,-0.17 11.130004,-4.48 1.44,-3.4 0.52,-7.36 -2.3,-9.77 l 12.92,-44.14 c 4.36,-0.4 7.7,-4.07 7.67,-8.45 z m -26.26,50.36 c -1.3,0.02 -2.600004,0.34 -3.760004,0.94 l -23.73,-30.04 c 0.66,-1.08 1.07,-2.28 1.2,-3.53 l 37.780004,-12.06 c 0.4,0.43 0.83,0.83 1.3,1.2 l -12.75,43.47 -0.04,0 z" style="fill:#fff"/></svg>